<!--?xml version="1.0" encoding="UTF-8" standalone="no"?-->
<svg viewBox="0 0 25 25" version="1.1" xmlns="http://www.w3.org/2000/svg" xmlns:xlink="http://www.w3.org/1999/xlink" class="si-nimble-pen">
    <!-- Generator: Sketch 3.0.3 (7891) - http://www.bohemiancoding.com/sketch -->
    <title class="">Pen</title>
    
    <defs class=""/>
    <g stroke="none" stroke-width="1" fill="none" fill-rule="evenodd" class="">
        <g transform="translate(2.000000, 2.000000)" stroke="#414042" stroke-width="2" class="">
            <path stroke="rgb(53, 88, 118)" d="M20.586,9.272 C21.366,10.053 21,21 21,21 C21,21 10.053,21.367 9.272,20.586 L5.029,13.515 C4.248,12.734 4.249,11.468 5.029,10.687 L10.686,5.03 C11.467,4.25 12.733,4.25 13.514,5.03 L20.586,9.272 L20.586,9.272 Z" class="si-nimble-pen-head si-nimble-pen-thick si-nimble-pen-stroke si-nimble-stroke" style=""/>
            <path stroke="rgb(53, 88, 118)" d="M8.565,1.494 C8.956,1.885 8.956,2.517 8.565,2.908 L2.908,8.565 C2.517,8.956 1.885,8.956 1.494,8.565 L0.08,7.151 C-0.312,6.759 -0.312,6.128 0.08,5.736 L5.736,0.08 C6.128,-0.312 6.759,-0.312 7.15,0.08 L8.565,1.494 L8.565,1.494 Z" class="si-nimble-pen-main si-nimble-pen-thick si-nimble-pen-stroke si-nimble-stroke" style=""/>
            <path stroke="rgb(53, 88, 118)" d="M14.929,14.929 L20.293,20.293" class="si-nimble-pen-line si-nimble-pen-thick si-nimble-pen-stroke si-nimble-stroke" style=""/>
            <circle stroke="rgb(53, 88, 118)" cx="14" cy="14" r="1" class="si-nimble-pen-circle si-nimble-pen-thick si-nimble-pen-stroke si-nimble-stroke" style=""/>
        </g>
    </g>
</svg>